<mxfile host="app.diagrams.net" modified="2022-03-29T15:33:48.025Z" agent="5.0 (Windows)" etag="FosoYvQmNIDWtOTpq8Rm" version="17.2.4" type="github">
  <diagram id="PWO9uiSib6GvzhB4MzN3" name="Page-1">
    <mxGraphModel dx="687" dy="383" grid="1" gridSize="10" guides="1" tooltips="1" connect="1" arrows="1" fold="1" page="1" pageScale="1" pageWidth="850" pageHeight="1100" math="1" shadow="0">
      <root>
        <mxCell id="0" />
        <mxCell id="1" parent="0" />
        <mxCell id="o9mvdOSmBcORoY-lxWtW-1" value="" style="ellipse;whiteSpace=wrap;html=1;fillColor=#fff2cc;strokeColor=#d6b656;" parent="1" vertex="1">
          <mxGeometry x="240" y="360" width="190" height="120" as="geometry" />
        </mxCell>
        <mxCell id="o9mvdOSmBcORoY-lxWtW-10" value="" style="ellipse;whiteSpace=wrap;html=1;fillColor=#fff2cc;strokeColor=#d6b656;" parent="1" vertex="1">
          <mxGeometry x="250" y="377.5" width="150" height="85" as="geometry" />
        </mxCell>
        <mxCell id="o9mvdOSmBcORoY-lxWtW-12" value="" style="ellipse;whiteSpace=wrap;html=1;fillColor=#fff2cc;strokeColor=#d6b656;" parent="1" vertex="1">
          <mxGeometry x="260" y="390" width="110" height="60" as="geometry" />
        </mxCell>
        <mxCell id="o9mvdOSmBcORoY-lxWtW-13" value="" style="ellipse;whiteSpace=wrap;html=1;fillColor=#fff2cc;strokeColor=#d6b656;" parent="1" vertex="1">
          <mxGeometry x="270" y="400" width="70" height="40" as="geometry" />
        </mxCell>
        <mxCell id="o9mvdOSmBcORoY-lxWtW-15" value="$$m_0$$" style="text;html=1;strokeColor=none;fillColor=none;align=center;verticalAlign=middle;whiteSpace=wrap;rounded=0;" parent="1" vertex="1">
          <mxGeometry x="275" y="405" width="60" height="30" as="geometry" />
        </mxCell>
        <mxCell id="o9mvdOSmBcORoY-lxWtW-16" value="$$F_1$$" style="text;html=1;strokeColor=none;fillColor=none;align=center;verticalAlign=middle;whiteSpace=wrap;rounded=0;" parent="1" vertex="1">
          <mxGeometry x="336" y="378.5" width="60" height="30" as="geometry" />
        </mxCell>
        <mxCell id="o9mvdOSmBcORoY-lxWtW-17" value="$$F_2$$" style="text;html=1;strokeColor=none;fillColor=none;align=center;verticalAlign=middle;whiteSpace=wrap;rounded=0;" parent="1" vertex="1">
          <mxGeometry x="359" y="367" width="60" height="30" as="geometry" />
        </mxCell>
        <mxCell id="o9mvdOSmBcORoY-lxWtW-19" value="$$F_3$$" style="text;html=1;strokeColor=none;fillColor=none;align=center;verticalAlign=middle;whiteSpace=wrap;rounded=0;" parent="1" vertex="1">
          <mxGeometry x="382" y="355" width="60" height="30" as="geometry" />
        </mxCell>
        <mxCell id="o9mvdOSmBcORoY-lxWtW-20" value="" style="shape=hexagon;perimeter=hexagonPerimeter2;whiteSpace=wrap;html=1;fixedSize=1;rotation=0;fillColor=#f8cecc;strokeColor=#b85450;" parent="1" vertex="1">
          <mxGeometry x="443" y="380" width="90" height="80" as="geometry" />
        </mxCell>
        <mxCell id="o9mvdOSmBcORoY-lxWtW-22" value="&lt;div&gt;$$\mathbb{F}$$&lt;/div&gt;" style="text;html=1;strokeColor=none;fillColor=none;align=center;verticalAlign=middle;whiteSpace=wrap;rounded=0;" parent="1" vertex="1">
          <mxGeometry x="458" y="405" width="60" height="30" as="geometry" />
        </mxCell>
        <mxCell id="o9mvdOSmBcORoY-lxWtW-23" value="$$F_0$$" style="text;html=1;strokeColor=none;fillColor=none;align=center;verticalAlign=middle;whiteSpace=wrap;rounded=0;" parent="1" vertex="1">
          <mxGeometry x="315" y="390" width="60" height="30" as="geometry" />
        </mxCell>
      </root>
    </mxGraphModel>
  </diagram>
</mxfile>
